<?xml version="1.0" encoding="UTF-8" standalone="no"?>
<!-- Created with Inkscape (http://www.inkscape.org/) -->

<svg
   xmlns:ns0="http://www.iki.fi/pav/software/textext/"
   xmlns:dc="http://purl.org/dc/elements/1.1/"
   xmlns:cc="http://creativecommons.org/ns#"
   xmlns:rdf="http://www.w3.org/1999/02/22-rdf-syntax-ns#"
   xmlns:svg="http://www.w3.org/2000/svg"
   xmlns="http://www.w3.org/2000/svg"
   xmlns:sodipodi="http://sodipodi.sourceforge.net/DTD/sodipodi-0.dtd"
   xmlns:inkscape="http://www.inkscape.org/namespaces/inkscape"
   width="128.930931mm"
   height="88.141043mm"
   viewBox="0 0 116.6844 78.452513"
   id="svg4413"
   version="1.1"
   inkscape:version="0.91 r13725"
   sodipodi:docname="venn-and.svg">
  <defs
     id="defs4415">
    <marker
       style="overflow:visible"
       id="Dot_m"
       refX="0"
       refY="0"
       orient="auto"
       inkscape:stockid="Dot_m">
      <path
         inkscape:connector-curvature="0"
         transform="matrix(0.4,0,0,0.4,2.96,0.4)"
         style="fill-rule:evenodd;stroke:#000000;stroke-width:1pt;marker-start:none;marker-end:none"
         d="m -2.5,-1 c 0,2.76 -2.24,5 -5,5 -2.76,0 -5,-2.24 -5,-5 0,-2.76 2.24,-5 5,-5 2.76,0 5,2.24 5,5 z"
         id="path3652" />
    </marker>
    <marker
       style="overflow:visible"
       id="marker4374"
       refX="0"
       refY="0"
       orient="auto"
       inkscape:stockid="Dot_m">
      <path
         inkscape:connector-curvature="0"
         transform="matrix(0.4,0,0,0.4,2.96,0.4)"
         style="fill-rule:evenodd;stroke:#000000;stroke-width:1pt;marker-start:none;marker-end:none"
         d="m -2.5,-1 c 0,2.76 -2.24,5 -5,5 -2.76,0 -5,-2.24 -5,-5 0,-2.76 2.24,-5 5,-5 2.76,0 5,2.24 5,5 z"
         id="path4376" />
    </marker>
    <marker
       style="overflow:visible"
       id="marker4378"
       refX="0"
       refY="0"
       orient="auto"
       inkscape:stockid="Dot_m">
      <path
         inkscape:connector-curvature="0"
         transform="matrix(0.4,0,0,0.4,2.96,0.4)"
         style="fill-rule:evenodd;stroke:#000000;stroke-width:1pt;marker-start:none;marker-end:none"
         d="m -2.5,-1 c 0,2.76 -2.24,5 -5,5 -2.76,0 -5,-2.24 -5,-5 0,-2.76 2.24,-5 5,-5 2.76,0 5,2.24 5,5 z"
         id="path4380" />
    </marker>
    <marker
       style="overflow:visible"
       id="marker4382"
       refX="0"
       refY="0"
       orient="auto"
       inkscape:stockid="Dot_m">
      <path
         inkscape:connector-curvature="0"
         transform="matrix(0.4,0,0,0.4,2.96,0.4)"
         style="fill-rule:evenodd;stroke:#000000;stroke-width:1pt;marker-start:none;marker-end:none"
         d="m -2.5,-1 c 0,2.76 -2.24,5 -5,5 -2.76,0 -5,-2.24 -5,-5 0,-2.76 2.24,-5 5,-5 2.76,0 5,2.24 5,5 z"
         id="path4384" />
    </marker>
    <marker
       style="overflow:visible"
       id="marker4386"
       refX="0"
       refY="0"
       orient="auto"
       inkscape:stockid="Dot_m">
      <path
         inkscape:connector-curvature="0"
         transform="matrix(0.4,0,0,0.4,2.96,0.4)"
         style="fill-rule:evenodd;stroke:#000000;stroke-width:1pt;marker-start:none;marker-end:none"
         d="m -2.5,-1 c 0,2.76 -2.24,5 -5,5 -2.76,0 -5,-2.24 -5,-5 0,-2.76 2.24,-5 5,-5 2.76,0 5,2.24 5,5 z"
         id="path4388" />
    </marker>
    <marker
       style="overflow:visible"
       id="marker4390"
       refX="0"
       refY="0"
       orient="auto"
       inkscape:stockid="Dot_m">
      <path
         inkscape:connector-curvature="0"
         transform="matrix(0.4,0,0,0.4,2.96,0.4)"
         style="fill-rule:evenodd;stroke:#000000;stroke-width:1pt;marker-start:none;marker-end:none"
         d="m -2.5,-1 c 0,2.76 -2.24,5 -5,5 -2.76,0 -5,-2.24 -5,-5 0,-2.76 2.24,-5 5,-5 2.76,0 5,2.24 5,5 z"
         id="path4392" />
    </marker>
    <marker
       style="overflow:visible"
       id="marker4394"
       refX="0"
       refY="0"
       orient="auto"
       inkscape:stockid="Dot_m">
      <path
         inkscape:connector-curvature="0"
         transform="matrix(0.4,0,0,0.4,2.96,0.4)"
         style="fill-rule:evenodd;stroke:#000000;stroke-width:1pt;marker-start:none;marker-end:none"
         d="m -2.5,-1 c 0,2.76 -2.24,5 -5,5 -2.76,0 -5,-2.24 -5,-5 0,-2.76 2.24,-5 5,-5 2.76,0 5,2.24 5,5 z"
         id="path4396" />
    </marker>
  </defs>
  <sodipodi:namedview
     id="base"
     pagecolor="#ffffff"
     bordercolor="#666666"
     borderopacity="1.0"
     inkscape:pageopacity="0.0"
     inkscape:pageshadow="2"
     inkscape:zoom="15.839192"
     inkscape:cx="81.628286"
     inkscape:cy="41.445801"
     inkscape:document-units="px"
     inkscape:current-layer="layer1"
     showgrid="false"
     fit-margin-top="1"
     fit-margin-left="1"
     fit-margin-right="1"
     fit-margin-bottom="1"
     inkscape:window-width="1920"
     inkscape:window-height="1016"
     inkscape:window-x="0"
     inkscape:window-y="27"
     inkscape:window-maximized="1" />
  <metadata
     id="metadata4418">
    <rdf:RDF>
      <cc:Work
         rdf:about="">
        <dc:format>image/svg+xml</dc:format>
        <dc:type
           rdf:resource="http://purl.org/dc/dcmitype/StillImage" />
        <dc:title></dc:title>
      </cc:Work>
    </rdf:RDF>
  </metadata>
  <g
     inkscape:label="Layer 1"
     inkscape:groupmode="layer"
     id="layer1"
     transform="translate(-398.80066,-444.56451)">
    <g
       style="font-style:normal;font-variant:normal;font-weight:normal;font-stretch:normal;letter-spacing:normal;word-spacing:normal;text-anchor:start;fill:none;fill-opacity:1;stroke:#000000;stroke-linecap:butt;stroke-linejoin:miter;stroke-miterlimit:10.43299961;stroke-dasharray:none;stroke-dashoffset:0;stroke-opacity:1"
       xml:space="preserve"
       id="g3516"
       transform="matrix(1,0,0,-1,267.86541,1170.5729)"
       stroke-miterlimit="10.433"
       fill-rule="even-odd"
       font-style="normal"
       font-variant="normal"
       font-weight="normal"
       font-stretch="normal"
       font-size-adjust="none"
       letter-spacing="normal"
       word-spacing="normal"
       ns0:text="$Q$"
       ns0:preamble=""><path
         inkscape:connector-curvature="0"
         style="fill:#000000;stroke-width:0"
         d="m 227.8,707.18 0.14,0.06 0.14,0.07 0.15,0.07 0.14,0.08 0.14,0.08 0.14,0.09 0.13,0.1 0.14,0.1 0.13,0.11 0.13,0.11 0.12,0.12 0.13,0.12 0.12,0.13 0.11,0.13 0.11,0.13 0.11,0.14 0.1,0.15 0.1,0.14 0.09,0.16 0.09,0.15 0.08,0.16 0.08,0.16 0.07,0.16 0.06,0.17 0.06,0.17 0.05,0.17 0.04,0.17 0.04,0.17 0.03,0.18 0.02,0.18 0.01,0.18 0,0.18 c 0,1.6 -1.05,2.68 -2.54,2.68 l -0.05,-0.25 c 0.99,0 1.72,-0.78 1.72,-2.12 0,-0.99 -0.51,-3.32 -2.18,-4.26 -0.05,0.35 -0.15,1.08 -0.88,1.08 l 0,-0.22 c 0.42,0 0.61,-0.24 0.61,-0.85 0,-0.15 -0.01,-0.16 -0.11,-0.2 -0.26,-0.11 -0.56,-0.18 -0.84,-0.18 l 0,0 c -0.14,0 -0.46,0 -0.46,0.43 0,0.4 0.38,0.8 0.8,0.8 l 0,0.22 c -0.53,0 -1.02,-0.5 -1.02,-1.02 0,-0.2 0.06,-0.31 0.06,-0.32 l 0,0 c -0.77,0.31 -1.11,1.09 -1.11,1.98 0,0.69 0.26,2.11 1.01,3.18 0.73,1.02 1.67,1.48 2.4,1.48 l 0.05,0.25 c -2.15,0 -4.34,-2.26 -4.34,-4.59 0,-1.65 1.12,-2.66 2.55,-2.66 0.25,0 0.59,0.04 0.98,0.15 -0.04,-0.62 -0.04,-0.64 -0.04,-0.76 0,-0.32 0,-1.1 0.82,-1.1 1.19,0 1.67,1.82 1.67,1.93 0,0.07 -0.07,0.1 -0.11,0.1 -0.08,0 -0.1,-0.05 -0.12,-0.11 -0.24,-0.7 -0.82,-0.95 -1.17,-0.95 -0.46,0 -0.6,0.26 -0.7,1.02 z"
         id="path3518" /></g>    <g
       ns0:preamble=""
       ns0:text="$P$"
       word-spacing="normal"
       letter-spacing="normal"
       font-size-adjust="none"
       font-stretch="normal"
       font-weight="normal"
       font-variant="normal"
       font-style="normal"
       fill-rule="even-odd"
       stroke-miterlimit="10.433"
       transform="matrix(1,0,0,-1,194.23878,1170.813)"
       id="g3520"
       xml:space="preserve"
       style="font-style:normal;font-variant:normal;font-weight:normal;font-stretch:normal;letter-spacing:normal;word-spacing:normal;text-anchor:start;fill:none;fill-opacity:1;stroke:#000000;stroke-linecap:butt;stroke-linejoin:miter;stroke-miterlimit:10.43299961;stroke-dasharray:none;stroke-dashoffset:0;stroke-opacity:1"><path
         inkscape:connector-curvature="0"
         id="path3522"
         d="m 226.45,710.27 0.04,0.26 0.68,2.71 c 0.09,0.35 0.11,0.38 0.54,0.38 l 0.95,0 c 0.83,0 1.36,-0.27 1.36,-0.96 0,-0.39 -0.2,-1.24 -0.59,-1.6 -0.5,-0.45 -1.1,-0.53 -1.53,-0.53 l -1.41,0 -0.04,-0.26 1.7,0 c 1.41,0 2.79,1.04 2.79,2.15 0,0.77 -0.65,1.51 -1.96,1.51 l -3.23,0 c -0.19,0 -0.29,0 -0.29,-0.19 0,-0.12 0.08,-0.12 0.28,-0.12 0.13,0 0.31,-0.01 0.43,-0.02 0.16,-0.02 0.22,-0.05 0.22,-0.16 0,-0.04 -0.01,-0.07 -0.04,-0.19 l -1.33,-5.35 c -0.1,-0.39 -0.12,-0.47 -0.91,-0.47 -0.17,0 -0.28,0 -0.28,-0.19 0,-0.12 0.12,-0.12 0.15,-0.12 0.28,0 0.99,0.03 1.27,0.03 0.21,0 0.42,-0.01 0.63,-0.01 0.22,0 0.44,-0.02 0.65,-0.02 0.07,0 0.2,0 0.2,0.2 0,0.11 -0.09,0.11 -0.28,0.11 -0.37,0 -0.65,0 -0.65,0.18 0,0.06 0.02,0.11 0.03,0.17 l 0.62,2.49 z"
         style="fill:#000000;stroke-width:0" /></g>    <ellipse
       ry="20.880693"
       rx="21.865097"
       cy="481.10635"
       cx="441.70901"
       id="path3524"
       style="opacity:1;fill:none;fill-opacity:1;fill-rule:evenodd;stroke:#000000;stroke-width:1px;stroke-linecap:butt;stroke-linejoin:miter;stroke-opacity:1" />
    <rect
       y="448.63132"
       x="402.86746"
       height="70.318901"
       width="108.55079"
       id="rect3526"
       style="opacity:1;fill:none;fill-opacity:1;stroke:#000000;stroke-width:1.04699993;stroke-linejoin:round;stroke-miterlimit:4;stroke-dasharray:none;stroke-dashoffset:0;stroke-opacity:1" />
    <ellipse
       ry="20.880693"
       rx="21.804239"
       cy="481.61075"
       cx="471.50778"
       id="path3528"
       style="opacity:1;fill:none;fill-opacity:1;fill-rule:evenodd;stroke:#000000;stroke-width:1px;stroke-linecap:butt;stroke-linejoin:miter;stroke-opacity:1" />
    <path
       style="fill:#b3b3b3;fill-opacity:1;stroke:#000000;stroke-width:0.12626907;stroke-miterlimit:4;stroke-dasharray:none;stroke-dashoffset:0;stroke-opacity:1"
       d="m 71.343504,57.362043 c -0.138896,-0.01368 -0.562492,-0.05492 -0.941324,-0.09163 -4.093429,-0.396754 -8.073416,-2.02194 -11.360216,-4.638825 l -0.684785,-0.545213 0.782024,-0.800218 c 3.430916,-3.510737 5.428723,-7.608152 6.023451,-12.353837 0.135423,-1.08062 0.152888,-3.450862 0.03326,-4.514119 C 64.6757,29.794432 62.813662,25.754096 59.591253,22.256955 l -0.647154,-0.702328 0.138786,-0.123874 c 0.459379,-0.410021 1.863045,-1.367675 2.727301,-1.860706 5.09403,-2.905986 11.204884,-3.642752 16.920055,-2.039995 4.906174,1.375881 9.166289,4.45868 11.953949,8.650378 1.635378,2.459057 2.642828,5.10562 3.111782,8.174636 0.116404,0.761793 0.140707,1.196273 0.144788,2.588516 0.0053,1.820771 -0.04943,2.446551 -0.342594,3.914341 -0.623537,3.121903 -1.939419,5.941895 -3.980142,8.529618 -0.692126,0.877644 -2.571208,2.734848 -3.462514,3.4222 -3.241649,2.499873 -6.923072,3.986088 -11.055504,4.46318 -0.61108,0.07055 -3.297905,0.134297 -3.756505,0.08913 z"
       id="path5109"
       inkscape:connector-curvature="0"
       transform="translate(398.80066,444.56451)" />
    <path
       style="fill:#b3b3b3;fill-opacity:1;stroke:#000000;stroke-width:0.12626907;stroke-miterlimit:4;stroke-dasharray:none;stroke-dashoffset:0;stroke-opacity:1"
       d="M 41.133629,56.828074 C 35.836443,56.367698 31.11993,54.207959 27.494589,50.582618 24.466112,47.55414 22.536274,43.85634 21.847607,39.762325 20.794165,33.49977 22.859204,27.134468 27.430517,22.553496 32.060748,17.913482 38.40966,15.67422 45.142672,16.306418 c 4.057049,0.380938 8.230804,2.056 11.341717,4.551795 0.358341,0.287486 0.6878,0.551113 0.732131,0.585837 0.06083,0.04765 -0.119555,0.267895 -0.735305,0.897806 -3.449159,3.528483 -5.451391,7.741075 -6.009916,12.644551 -0.111231,0.976542 -0.09349,3.326916 0.03311,4.387851 0.548128,4.593147 2.537737,8.797907 5.745259,12.141807 0.277002,0.288778 0.476116,0.544473 0.442477,0.56821 -0.03364,0.02374 -0.344779,0.255909 -0.691422,0.515938 -2.603581,1.953032 -5.944899,3.38912 -9.18499,3.947678 -1.671571,0.288161 -4.171769,0.411445 -5.682108,0.280183 z"
       id="path5111"
       inkscape:connector-curvature="0"
       transform="translate(398.80066,444.56451)" />
    <path
       style="fill:#b3b3b3;fill-opacity:1;stroke:#000000;stroke-width:0.12626907;stroke-miterlimit:4;stroke-dasharray:none;stroke-dashoffset:0;stroke-opacity:1"
       d="m 4.6418684,39.216421 0,-34.5977245 53.6959216,0 53.69592,0 0,34.5977245 0,34.597725 -53.69592,0 -53.6959216,0 0,-34.597725 z M 74.122503,58.406852 c 4.800321,-0.312076 9.253944,-2.018187 12.9415,-4.957676 0.92797,-0.739722 2.770375,-2.600423 3.465461,-3.499884 3.501207,-4.530651 5.022327,-9.888744 4.360607,-15.360145 C 93.899554,26.399038 88.08872,19.473341 79.966033,16.801795 77.541509,16.004371 75.373646,15.66668 72.686906,15.667916 c -3.021663,0.0014 -5.542795,0.45849 -8.256634,1.496993 -2.095436,0.801859 -4.181515,1.974618 -5.802455,3.262043 -0.377188,0.299579 -0.488727,0.359039 -0.573825,0.305894 -0.0581,-0.03628 -0.401551,-0.303911 -0.763232,-0.594731 -2.903068,-2.334301 -6.444627,-3.945515 -10.15935,-4.621946 -2.564917,-0.467057 -5.637573,-0.480567 -8.239057,-0.03623 -9.063046,1.547996 -16.305475,8.430481 -17.987674,17.093696 -0.357937,1.843351 -0.474189,4.206894 -0.294125,5.97987 0.813914,8.014059 6.170189,14.860425 13.972108,17.859079 6.471364,2.487258 13.868923,1.924021 19.847833,-1.511179 0.770119,-0.442473 1.786095,-1.11818 2.4552,-1.632907 0.277792,-0.213699 0.540537,-0.41035 0.583877,-0.437003 0.05028,-0.03092 0.313068,0.142849 0.726047,0.480097 2.178198,1.778762 4.631193,3.12274 7.30794,4.003967 2.686211,0.884343 5.778906,1.275925 8.618944,1.091289 z M 97.808339,20.712453 c 0.34294,-0.166015 0.667774,-0.542279 0.915173,-1.060063 0.37834,-0.79185 0.267381,-1.25193 -0.131484,-0.545178 -0.21647,0.383563 -0.538405,0.631671 -0.905918,0.698173 -0.396781,0.0718 -0.652097,-0.184121 -0.76012,-0.761928 -0.03433,-0.183588 -0.01785,-0.200068 0.431139,-0.431196 0.784819,-0.404011 1.630992,-1.286763 2.066507,-2.155839 0.717174,-1.431131 0.592054,-3.024678 -0.308179,-3.924905 -1.086753,-1.086753 -3.084671,-0.86646 -4.54686,0.501343 -1.217638,1.13904 -1.83981,2.818482 -1.534599,4.14237 0.177818,0.771307 0.798627,1.5108 1.493479,1.778988 0.386371,0.149125 1.182453,0.200088 1.691033,0.108253 l 0.252538,-0.0456 0,0.582244 c 0,0.361127 0.03406,0.663005 0.08967,0.794899 0.182169,0.432008 0.726186,0.570862 1.247621,0.31844 z M 22.180798,18.974249 c 0.02247,-0.157431 -0.121316,-0.211255 -0.567797,-0.212555 -0.16289,-5.05e-4 -0.310094,-0.0234 -0.327122,-0.05095 -0.01703,-0.02755 0.117958,-0.645479 0.299965,-1.373176 l 0.330922,-1.323085 1.195755,-0.03398 c 1.005672,-0.02858 1.252748,-0.05517 1.554284,-0.167262 0.825361,-0.30682 1.478261,-0.92591 1.669218,-1.582781 0.08698,-0.299216 0.0908,-0.405963 0.02516,-0.704825 -0.06478,-0.294973 -0.131795,-0.405398 -0.412424,-0.679559 -0.516603,-0.504696 -0.665793,-0.535033 -2.808475,-0.571077 -1.901446,-0.03199 -2.228618,-10e-4 -2.260216,0.214043 -0.017,0.115719 0.02449,0.132953 0.405898,0.168569 0.233661,0.02182 0.446095,0.06157 0.472076,0.08834 0.07974,0.08216 -1.378453,5.845059 -1.501979,5.935966 -0.05898,0.0434 -0.266839,0.07892 -0.461909,0.07892 -0.393342,0 -0.612125,0.110171 -0.548427,0.276165 0.03622,0.09439 0.185878,0.103302 1.478136,0.08805 1.410602,-0.01665 1.438197,-0.01951 1.456932,-0.150796 z"
       id="path5113"
       inkscape:connector-curvature="0"
       transform="translate(398.80066,444.56451)" />
    <path
       style="fill:#b3b3b3;fill-opacity:1;stroke:#000000;stroke-width:0.12626907;stroke-miterlimit:4;stroke-dasharray:none;stroke-dashoffset:0;stroke-opacity:1"
       d="m 22.005787,15.588322 c 8.98e-4,-0.0434 0.155416,-0.688854 0.343374,-1.434331 0.237959,-0.943792 0.376468,-1.381701 0.456092,-1.441977 0.08808,-0.06668 0.31013,-0.08055 0.966667,-0.06037 1.369091,0.04208 1.694422,0.266786 1.622819,1.120865 -0.07856,0.937056 -0.498836,1.533975 -1.262001,1.792422 -0.387941,0.131377 -2.129582,0.150527 -2.126951,0.02339 z"
       id="path5115"
       inkscape:connector-curvature="0"
       transform="translate(398.80066,444.56451)" />
    <path
       style="fill:#b3b3b3;fill-opacity:1;stroke:#000000;stroke-width:0.12626907;stroke-miterlimit:4;stroke-dasharray:none;stroke-dashoffset:0;stroke-opacity:1"
       d="m 94.573985,18.471422 c -0.24555,-0.193523 -0.483571,-0.58705 -0.582915,-0.963751 -0.176875,-0.670686 -0.02443,-1.886784 0.355603,-2.836711 0.428513,-1.071114 1.116733,-1.869726 1.957037,-2.270952 0.437961,-0.209116 0.551625,-0.236735 0.974265,-0.236735 0.42217,0 0.515015,0.0225 0.789181,0.191244 0.344722,0.212169 0.677509,0.65588 0.796146,1.061514 0.04222,0.144359 0.07613,0.532371 0.07535,0.862249 -0.0034,1.432024 -0.755709,3.127151 -1.728759,3.895253 l -0.34724,0.274103 -0.08921,-0.321255 c -0.150764,-0.542902 -0.579394,-0.845997 -1.03476,-0.731707 -0.424823,0.106624 -0.864765,0.647855 -0.864765,1.063863 0,0.216482 -0.03944,0.218176 -0.299926,0.01289 z"
       id="path5117"
       inkscape:connector-curvature="0"
       transform="translate(398.80066,444.56451)" />
    <path
       style="fill:#b3b3b3;fill-opacity:1;stroke:#000000;stroke-width:0.12626907;stroke-miterlimit:4;stroke-dasharray:none;stroke-dashoffset:0;stroke-opacity:1"
       d="m 95.300069,18.755775 c -0.237132,-0.138117 -0.08937,-0.754038 0.231307,-0.964153 0.176501,-0.115647 0.551296,-0.137382 0.729005,-0.04228 0.137945,0.07383 0.255028,0.381983 0.255028,0.671221 0,0.197312 -0.01845,0.214582 -0.327131,0.306251 -0.374065,0.111085 -0.727423,0.122605 -0.888209,0.02896 z"
       id="path5121"
       inkscape:connector-curvature="0"
       transform="translate(398.80066,444.56451)" />
  </g>
</svg>
